<?xml version="1.0" encoding="UTF-8" standalone="no"?>
<!DOCTYPE svg PUBLIC "-//W3C//DTD SVG 1.1//EN"
 "http://www.w3.org/Graphics/SVG/1.1/DTD/svg11.dtd">
<!-- Generated by graphviz version 2.38.0 (20140413.2041)
 -->
<!-- Title: models_diagram Pages: 1 -->
<svg width="482pt" height="181pt"
 viewBox="0.00 0.00 481.55 181.00" xmlns="http://www.w3.org/2000/svg" xmlns:xlink="http://www.w3.org/1999/xlink">
<g id="graph0" class="graph" transform="scale(1 1) rotate(0) translate(4 177)">
<title>models_diagram</title>
<polygon fill="none" stroke="none" points="-4,4 -4,-177 477.55,-177 477.55,4 -4,4"/>
<!-- _diagram_info -->
<g id="node1" class="node"><title>_diagram_info</title>
<text text-anchor="start" x="8" y="-144.6" font-family="Times,serif" font-size="13.00">Models diagram</text>
<text text-anchor="start" x="8" y="-131.6" font-family="Times,serif" font-size="13.00">Date: Apr 15 2016 &#45; 21:33</text>
<text text-anchor="start" x="8" y="-118.6" font-family="Times,serif" font-size="13.00">Migration version: 20160416012839</text>
<text text-anchor="start" x="8" y="-105.6" font-family="Times,serif" font-size="13.00">Generated by RailRoady 1.4.2</text>
<text text-anchor="start" x="8" y="-92.6" font-family="Times,serif" font-size="13.00">http://railroady.prestonlee.com</text>
</g>
<!-- Trabajadore -->
<g id="node2" class="node"><title>Trabajadore</title>
<path fill="none" stroke="black" d="M237.825,-72.5C237.825,-72.5 461.55,-72.5 461.55,-72.5 467.55,-72.5 473.55,-78.5 473.55,-84.5 473.55,-84.5 473.55,-160.5 473.55,-160.5 473.55,-166.5 467.55,-172.5 461.55,-172.5 461.55,-172.5 237.825,-172.5 237.825,-172.5 231.825,-172.5 225.825,-166.5 225.825,-160.5 225.825,-160.5 225.825,-84.5 225.825,-84.5 225.825,-78.5 231.825,-72.5 237.825,-72.5"/>
<text text-anchor="middle" x="349.688" y="-157.3" font-family="Times,serif" font-size="14.00">Trabajadore</text>
<polyline fill="none" stroke="black" points="225.825,-150.5 473.55,-150.5 "/>
<text text-anchor="start" x="233.825" y="-135.3" font-family="Times,serif" font-size="14.00">id :integer</text>
<text text-anchor="start" x="233.825" y="-121.3" font-family="Times,serif" font-size="14.00">name :character varying</text>
<text text-anchor="start" x="233.825" y="-107.3" font-family="Times,serif" font-size="14.00">email :character varying</text>
<text text-anchor="start" x="233.825" y="-93.3" font-family="Times,serif" font-size="14.00">created_at :timestamp without time zone</text>
<text text-anchor="start" x="233.825" y="-79.3" font-family="Times,serif" font-size="14.00">updated_at :timestamp without time zone</text>
</g>
<!-- Operacione -->
<g id="node3" class="node"><title>Operacione</title>
<ellipse fill="none" stroke="black" cx="349.688" cy="-18" rx="50.7224" ry="18"/>
<text text-anchor="middle" x="349.688" y="-13.8" font-family="Times,serif" font-size="14.00">Operacione</text>
</g>
<!-- Trabajadore&#45;&gt;Operacione -->
<g id="edge1" class="edge"><title>Trabajadore&#45;&gt;Operacione</title>
<path fill="none" stroke="#a5297b" d="M349.688,-64.1654C349.688,-57.9743 349.688,-51.9034 349.688,-46.3209"/>
<ellipse fill="none" stroke="#a5297b" cx="349.688" cy="-68.3515" rx="4" ry="4"/>
<polygon fill="#a5297b" stroke="#a5297b" points="349.688,-46.2845 354.188,-36.2844 349.688,-41.2845 349.688,-36.2845 349.688,-36.2845 349.688,-36.2845 349.688,-41.2845 345.188,-36.2845 349.688,-46.2845 349.688,-46.2845"/>
</g>
</g>
</svg>
