<?xml version="1.0" encoding="UTF-8" standalone="no"?>
<!DOCTYPE svg PUBLIC "-//W3C//DTD SVG 1.1//EN"
 "http://www.w3.org/Graphics/SVG/1.1/DTD/svg11.dtd">
<!-- Generated by graphviz version 2.38.0 (20140413.2041)
 -->
<!-- Title: models_diagram Pages: 1 -->
<svg width="338pt" height="153pt"
 viewBox="0.00 0.00 338.20 153.00" xmlns="http://www.w3.org/2000/svg" xmlns:xlink="http://www.w3.org/1999/xlink">
<g id="graph0" class="graph" transform="scale(1 1) rotate(0) translate(4 149)">
<title>models_diagram</title>
<polygon fill="none" stroke="none" points="-4,4 -4,-149 334.203,-149 334.203,4 -4,4"/>
<!-- _diagram_info -->
<g id="node1" class="node"><title>_diagram_info</title>
<text text-anchor="start" x="8" y="-130.6" font-family="Times,serif" font-size="13.00">Models diagram</text>
<text text-anchor="start" x="8" y="-117.6" font-family="Times,serif" font-size="13.00">Date: Apr 15 2016 &#45; 21:34</text>
<text text-anchor="start" x="8" y="-104.6" font-family="Times,serif" font-size="13.00">Migration version: 20160416012839</text>
<text text-anchor="start" x="8" y="-91.6" font-family="Times,serif" font-size="13.00">Generated by RailRoady 1.4.2</text>
<text text-anchor="start" x="8" y="-78.6" font-family="Times,serif" font-size="13.00">http://railroady.prestonlee.com</text>
</g>
<!-- Trabajadore -->
<g id="node2" class="node"><title>Trabajadore</title>
<ellipse fill="none" stroke="black" cx="277.688" cy="-108.5" rx="52.5297" ry="18"/>
<text text-anchor="middle" x="277.688" y="-104.3" font-family="Times,serif" font-size="14.00">Trabajadore</text>
</g>
<!-- Operacione -->
<g id="node3" class="node"><title>Operacione</title>
<ellipse fill="none" stroke="black" cx="277.688" cy="-18" rx="50.7224" ry="18"/>
<text text-anchor="middle" x="277.688" y="-13.8" font-family="Times,serif" font-size="14.00">Operacione</text>
</g>
<!-- Trabajadore&#45;&gt;Operacione -->
<g id="edge1" class="edge"><title>Trabajadore&#45;&gt;Operacione</title>
<path fill="none" stroke="#10ab15" d="M277.688,-82.189C277.688,-70.9711 277.688,-57.7517 277.688,-46.3113"/>
<ellipse fill="none" stroke="#10ab15" cx="277.688" cy="-86.4363" rx="4" ry="4"/>
<polygon fill="#10ab15" stroke="#10ab15" points="277.688,-46.0113 282.188,-36.0113 277.688,-41.0113 277.688,-36.0113 277.688,-36.0113 277.688,-36.0113 277.688,-41.0113 273.188,-36.0113 277.688,-46.0113 277.688,-46.0113"/>
</g>
</g>
</svg>
